<?xml version="1.0" encoding="utf-8"?>
<!-- Generator: Adobe Illustrator 17.0.0, SVG Export Plug-In . SVG Version: 6.00 Build 0)  -->
<!DOCTYPE svg PUBLIC "-//W3C//DTD SVG 1.1//EN" "http://www.w3.org/Graphics/SVG/1.1/DTD/svg11.dtd">
<svg version="1.1" id="Layer_1" xmlns="http://www.w3.org/2000/svg" xmlns:xlink="http://www.w3.org/1999/xlink" x="0px" y="0px"
	 width="100%" height="100%" viewBox="0 0 34 34" enable-background="new 0 0 34 34" xml:space="preserve">
<path fill="#DEDFE2" d="M16.992,13.056c1.036,0,1.971,0.424,2.644,1.108h4.618v-1.884l0,0c0-1.584-1.285-2.869-2.869-2.869h-7.84
	v3.617h-0.588V9.411h-0.34c-0.022,0-0.044,0.001-0.066,0.002v3.615h-0.588V9.487c-0.143,0.033-0.281,0.077-0.414,0.131v3.411H10.96
	v-3.09c-0.733,0.519-1.212,1.374-1.212,2.341v1.884h4.599C15.021,13.48,15.956,13.056,16.992,13.056z M20.471,11.07
	c0-0.254,0.206-0.46,0.46-0.46h1.551c0.255,0,0.46,0.206,0.46,0.46v1.586c0,0.254-0.206,0.46-0.46,0.46h-1.551
	c-0.255,0-0.46-0.206-0.46-0.46V11.07z"/>
<path fill="#DEDFE2" d="M18.874,14.618c-0.21-0.183-0.446-0.337-0.704-0.454c-0.36-0.164-0.759-0.255-1.18-0.255
	c-0.42,0-0.819,0.092-1.18,0.255c-0.257,0.117-0.494,0.271-0.703,0.454c-0.598,0.525-0.976,1.294-0.976,2.149
	c0,1.577,1.283,2.86,2.859,2.86c1.577,0,2.86-1.283,2.86-2.86C19.851,15.912,19.473,15.143,18.874,14.618z M17.001,18.881
	c-1.167,0-2.114-0.946-2.114-2.114s0.946-2.113,2.114-2.113s2.114,0.946,2.114,2.113C19.114,17.935,18.168,18.881,17.001,18.881z"/>
<path fill="#DEDFE2" d="M12.617,23.992h8.768c1.585,0,2.869-1.284,2.869-2.869v-6.506h-4.237c0.432,0.607,0.687,1.348,0.687,2.149
	c0,2.05-1.662,3.712-3.712,3.712s-3.712-1.662-3.712-3.712c0-0.801,0.255-1.542,0.687-2.149H9.747v6.506
	C9.748,22.708,11.033,23.992,12.617,23.992z"/>
</svg>
