<?xml version="1.0" encoding="utf-8"?>
<!-- Generator: Adobe Illustrator 17.0.0, SVG Export Plug-In . SVG Version: 6.00 Build 0)  -->
<!DOCTYPE svg PUBLIC "-//W3C//DTD SVG 1.1//EN" "http://www.w3.org/Graphics/SVG/1.1/DTD/svg11.dtd">
<svg version="1.1" id="Layer_1" xmlns="http://www.w3.org/2000/svg" xmlns:xlink="http://www.w3.org/1999/xlink" x="0px" y="0px"
	 width="440px" height="160px" viewBox="0 0 440 160" enable-background="new 0 0 440 160" xml:space="preserve">
<g>
	<path fill="#2980BA" d="M48.806,87.285c0.326,2.302,0.966,4.022,1.919,5.161c1.745,2.074,4.734,3.11,8.969,3.11
		c2.536,0,4.595-0.273,6.177-0.82c3.001-1.048,4.502-2.996,4.502-5.845c0-1.663-0.735-2.95-2.205-3.862
		c-1.471-0.889-3.803-1.675-6.995-2.358l-5.454-1.196c-5.361-1.184-9.044-2.472-11.049-3.862c-3.396-2.324-5.093-5.958-5.093-10.903
		c0-4.512,1.66-8.26,4.982-11.245c3.322-2.985,8.2-4.478,14.636-4.478c5.374,0,9.958,1.407,13.753,4.221
		c3.794,2.814,5.784,6.899,5.969,12.253H68.801c-0.187-3.03-1.542-5.184-4.065-6.46c-1.682-0.843-3.772-1.265-6.272-1.265
		c-2.78,0-4.999,0.547-6.658,1.641s-2.488,2.621-2.488,4.58c0,1.8,0.818,3.145,2.453,4.033c1.051,0.593,3.282,1.288,6.693,2.085
		l8.841,2.085c3.875,0.912,6.779,2.131,8.713,3.657c3.003,2.37,4.505,5.799,4.505,10.288c0,4.604-1.779,8.426-5.338,11.468
		s-8.585,4.563-15.08,4.563c-6.633,0-11.85-1.498-15.65-4.494c-3.801-2.996-5.7-7.115-5.7-12.356H48.806z"/>
	<path fill="#2980BA" d="M125.163,61.377h-26.66v10.698h24.473v8.75H98.503v12.954h27.891v9.058H88.215v-50.38h36.948V61.377z"/>
	<path fill="#2980BA" d="M139.409,57.72c4.058-4.147,9.22-6.221,15.487-6.221c8.386,0,14.517,2.78,18.395,8.34
		c2.142,3.122,3.291,6.255,3.449,9.399h-10.527c-0.67-2.415-1.529-4.238-2.578-5.469c-1.875-2.188-4.654-3.281-8.338-3.281
		c-3.75,0-6.708,1.544-8.873,4.631c-2.165,3.088-3.248,7.457-3.248,13.108s1.143,9.883,3.427,12.698
		c2.285,2.814,5.188,4.221,8.71,4.221c3.61,0,6.363-1.207,8.259-3.623c1.047-1.299,1.916-3.247,2.607-5.845h10.459
		c-0.902,5.492-3.207,9.958-6.915,13.398c-3.708,3.441-8.459,5.161-14.252,5.161c-7.169,0-12.805-2.324-16.907-6.973
		c-4.103-4.671-6.154-11.074-6.154-19.208C132.409,69.262,134.742,62.483,139.409,57.72z"/>
</g>
<rect x="196.426" y="52.297" fill="#B3B7B7" width="29.189" height="50.54"/>
<ellipse fill="#2980BA" cx="220.345" cy="80" rx="2.027" ry="2.365"/>
<g>
	<rect x="239.88" y="52.602" fill="none" width="143.609" height="54.135"/>
	<path fill="#590C0D" d="M274.692,52.551h10.938l-17.177,50.381h-9.946L241.47,52.551h11.244l10.938,38.247L274.692,52.551z"/>
	<path fill="#590C0D" d="M328.508,52.551v8.921h-15.073v41.46h-10.596v-41.46h-15.142v-8.921H328.508z"/>
</g>
<g>
</g>
<g>
</g>
<g>
</g>
<g>
</g>
<g>
</g>
<g>
</g>
</svg>
