<?xml version="1.0" encoding="utf-8"?>
<!-- Generator: Adobe Illustrator 17.0.0, SVG Export Plug-In . SVG Version: 6.00 Build 0)  -->
<!DOCTYPE svg PUBLIC "-//W3C//DTD SVG 1.1//EN" "http://www.w3.org/Graphics/SVG/1.1/DTD/svg11.dtd">
<svg version="1.1"  id="Layer_1" xmlns="http://www.w3.org/2000/svg" xmlns:xlink="http://www.w3.org/1999/xlink" x="0px" y="0px" 
	 width="100%" height="100%" viewBox="0 0 34 34" enable-background="new 0 0 34 34" xml:space="preserve">
<path style="fill:#DEDFE2;" d="M9.494,22.413c1.363,0.874,2.982,1.384,4.721,1.384c5.718,0,8.949-4.83,8.754-9.162c0.602-0.434,1.124-0.977,1.537-1.594
	c-0.553,0.245-1.146,0.411-1.769,0.485c0.636-0.381,1.124-0.984,1.354-1.704c-0.595,0.353-1.254,0.61-1.956,0.747
	c-0.562-0.599-1.362-0.973-2.248-0.973c-1.988,0-3.449,1.855-3,3.782c-2.56-0.129-4.829-1.355-6.348-3.218
	c-0.807,1.384-0.419,3.195,0.953,4.112c-0.505-0.016-0.98-0.155-1.395-0.385c-0.033,1.427,0.989,2.761,2.47,3.059
	c-0.433,0.118-0.908,0.145-1.39,0.053c0.392,1.224,1.529,2.114,2.877,2.139C12.759,22.153,11.128,22.606,9.494,22.413z"/>


</svg>
