<?xml version="1.0" encoding="utf-8"?>
<!-- Generator: Adobe Illustrator 17.0.0, SVG Export Plug-In . SVG Version: 6.00 Build 0)  -->
<!DOCTYPE svg PUBLIC "-//W3C//DTD SVG 1.1//EN" "http://www.w3.org/Graphics/SVG/1.1/DTD/svg11.dtd">
<svg version="1.1" id="Layer_1" xmlns="http://www.w3.org/2000/svg" xmlns:xlink="http://www.w3.org/1999/xlink" x="0px" y="0px"
	 width="34px" height="34px" viewBox="0 0 34 34" enable-background="new 0 0 34 34" xml:space="preserve">
<g>
	<path style="fill:#897966;" d="M8.449,14.535c-0.005-0.952-0.012-1.905-0.015-2.857c-0.001-0.216,0.128-0.331,0.356-0.331c1.396,0,2.792,0,4.188,0
		c0.317,0,0.634-0.003,0.95,0.002c0.07,0.001,0.145,0.018,0.207,0.049c0.112,0.054,0.142,0.166,0.142,0.278
		c0.002,0.907,0.002,1.815,0.001,2.722c0,0.207-0.125,0.328-0.333,0.33c-0.177,0.002-0.354,0-0.556,0
		c1.255,2.642,2.503,5.27,3.756,7.907c0.013-0.022,0.025-0.037,0.034-0.055c0.205-0.424,0.41-0.849,0.614-1.274
		c0.164-0.342,0.327-0.684,0.489-1.027c0.204-0.432,0.406-0.866,0.609-1.299c0.102-0.218,0.207-0.434,0.31-0.652
		c0.066-0.14,0.13-0.282,0.199-0.421c0.088-0.179,0.183-0.354,0.27-0.533c0.106-0.219,0.204-0.441,0.308-0.661
		c0.115-0.244,0.232-0.487,0.347-0.731c0.193-0.408,0.387-0.816,0.58-1.224c0.003-0.007,0.004-0.015,0.009-0.031
		c-0.175,0-0.346,0-0.516,0c-0.252,0-0.367-0.116-0.367-0.37c0-0.886-0.001-1.772,0.001-2.658c0-0.119,0.021-0.236,0.136-0.299
		c0.059-0.032,0.131-0.054,0.198-0.054c3.444-0.003,6.888-0.002,10.333-0.002c0.209,0,0.333,0.123,0.333,0.33
		c0.002,0.907,0.002,1.815,0,2.722c0,0.213-0.128,0.329-0.351,0.329c-1.017,0-2.035,0-3.052,0c-0.091,0-0.182,0-0.279,0
		c0,2.995,0,5.987,0,8.989c0.031,0,0.062,0,0.093,0c1.074,0,2.148,0,3.221,0c0.252,0,0.368,0.116,0.368,0.369
		c0,0.883,0,1.766,0,2.65c0,0.247-0.118,0.363-0.365,0.364c-3.434,0-6.867,0-10.301,0c-0.252,0-0.367-0.116-0.367-0.37
		c0-0.454,0-0.907-0.012-1.365c-0.049,0.101-0.098,0.202-0.147,0.304c-0.096,0.202-0.192,0.405-0.289,0.607
		c-0.097,0.201-0.198,0.4-0.291,0.603c-0.07,0.152-0.188,0.221-0.35,0.221c-1.17,0-2.341,0.002-3.511-0.002
		c-0.156,0-0.282-0.054-0.352-0.222c-0.113-0.271-0.253-0.531-0.378-0.796c-0.232-0.493-0.462-0.988-0.694-1.482
		c-0.112-0.239-0.227-0.478-0.341-0.716c-0.15-0.316-0.299-0.633-0.451-0.949c-0.177-0.369-0.358-0.737-0.536-1.105
		c-0.202-0.419-0.405-0.837-0.604-1.257c-0.124-0.261-0.241-0.525-0.364-0.786c-0.156-0.331-0.316-0.66-0.474-0.991
		c-0.022-0.045-0.042-0.091-0.071-0.154c-0.053,0.113-0.096,0.212-0.145,0.308c-0.069,0.138-0.144,0.272-0.211,0.411
		c-0.013,0.028-0.015,0.072-0.002,0.099c0.189,0.399,0.382,0.797,0.572,1.196c0.217,0.456,0.43,0.913,0.645,1.37
		c0.182,0.387,0.366,0.773,0.548,1.16c0.151,0.321,0.299,0.644,0.452,0.965c0.102,0.214,0.215,0.422,0.316,0.636
		c0.239,0.504,0.475,1.011,0.711,1.516c0.063,0.135,0.134,0.268,0.185,0.408c0.05,0.139-0.001,0.277-0.118,0.34
		c-0.057,0.03-0.127,0.049-0.191,0.049c-1.098,0.003-2.196,0.002-3.294,0.002c-0.181,0-0.279-0.103-0.348-0.259
		c-0.102-0.232-0.213-0.46-0.32-0.69c-0.139-0.298-0.277-0.596-0.417-0.894c-0.11-0.235-0.222-0.469-0.333-0.703
		c-0.142-0.299-0.283-0.599-0.431-0.911c-0.024,0.04-0.046,0.071-0.062,0.105c-0.191,0.403-0.382,0.807-0.571,1.211
		c-0.169,0.361-0.335,0.723-0.503,1.084c-0.131,0.28-0.265,0.559-0.394,0.84c-0.069,0.149-0.185,0.217-0.344,0.217
		c-1.098,0.001-2.196,0.001-3.294,0c-0.193,0-0.301-0.084-0.33-0.269c-0.009-0.056,0.01-0.122,0.034-0.176
		c0.089-0.2,0.185-0.397,0.278-0.596c0.143-0.305,0.284-0.611,0.427-0.916c0.114-0.242,0.229-0.483,0.345-0.724
		c0.203-0.42,0.411-0.838,0.612-1.259c0.207-0.434,0.409-0.87,0.614-1.305c0.154-0.326,0.31-0.652,0.464-0.978
		c0.165-0.35,0.328-0.702,0.495-1.051c0.059-0.124,0.124-0.246,0.191-0.366c0.023-0.042,0.015-0.072-0.004-0.11
		c-0.15-0.303-0.302-0.606-0.447-0.911c-0.193-0.405-0.38-0.813-0.571-1.219c-0.207-0.44-0.413-0.88-0.621-1.32
		c-0.128-0.271-0.259-0.54-0.387-0.811c-0.058-0.123-0.111-0.249-0.171-0.371c-0.072-0.147-0.154-0.289-0.224-0.437
		c-0.277-0.582-0.55-1.165-0.826-1.748c-0.103-0.217-0.207-0.433-0.309-0.651c-0.041-0.088-0.065-0.177-0.047-0.279
		c0.031-0.179,0.155-0.253,0.327-0.256c0.223-0.005,0.446-0.001,0.668-0.001c0.854,0,1.707,0.001,2.561-0.001
		c0.183,0,0.31,0.063,0.389,0.244c0.152,0.347,0.325,0.685,0.486,1.029c0.119,0.254,0.233,0.51,0.352,0.764
		c0.131,0.278,0.264,0.555,0.397,0.832c0.051,0.107,0.106,0.213,0.159,0.319c0.037,0.085,0.073,0.17,0.112,0.254
		c0.058,0.125,0.118,0.248,0.186,0.391c0.078-0.16,0.147-0.301,0.22-0.45C8.764,14.727,8.557,14.759,8.449,14.535z M3.384,11.636
		c0.011,0.043,0.015,0.08,0.03,0.111c0.093,0.196,0.19,0.391,0.283,0.587c0.129,0.27,0.255,0.542,0.385,0.812
		c0.15,0.314,0.302,0.627,0.453,0.94c0.109,0.227,0.216,0.454,0.323,0.681c0.114,0.243,0.227,0.486,0.341,0.729
		c0.084,0.178,0.17,0.355,0.254,0.533c0.119,0.252,0.237,0.504,0.357,0.756c0.062,0.13,0.128,0.259,0.189,0.39
		c0.12,0.257,0.235,0.517,0.356,0.774c0.093,0.195,0.195,0.386,0.289,0.58c0.109,0.225,0.212,0.453,0.323,0.677
		c0.064,0.129,0.122,0.252,0.01,0.385c-0.019,0.023-0.024,0.058-0.038,0.086c-0.12,0.24-0.242,0.479-0.359,0.72
		c-0.139,0.288-0.273,0.579-0.41,0.868c-0.115,0.242-0.232,0.483-0.347,0.726c-0.112,0.237-0.222,0.476-0.334,0.714
		c-0.078,0.166-0.161,0.33-0.238,0.496c-0.087,0.185-0.168,0.373-0.255,0.558c-0.131,0.276-0.264,0.551-0.398,0.826
		c-0.047,0.098-0.099,0.194-0.146,0.292c-0.081,0.168-0.159,0.337-0.239,0.505c-0.06,0.126-0.119,0.252-0.18,0.377
		c-0.094,0.196-0.19,0.392-0.284,0.588c-0.072,0.151-0.14,0.304-0.213,0.463c0.042,0,0.074,0,0.106,0
		c1.031,0,2.062-0.003,3.092,0.003c0.139,0.001,0.221-0.02,0.279-0.167c0.098-0.253,0.23-0.492,0.346-0.738
		c0.189-0.402,0.376-0.806,0.564-1.209c0.046-0.098,0.091-0.196,0.136-0.294c0.112-0.242,0.224-0.485,0.337-0.727
		c0.102-0.219,0.205-0.437,0.309-0.655c0.008-0.017,0.024-0.031,0.036-0.047c0.014,0.014,0.033,0.025,0.041,0.042
		c0.117,0.243,0.233,0.486,0.347,0.729c0.132,0.281,0.26,0.564,0.392,0.845c0.083,0.176,0.17,0.35,0.253,0.526
		c0.135,0.288,0.267,0.578,0.401,0.866c0.11,0.238,0.225,0.474,0.332,0.713c0.038,0.085,0.082,0.115,0.181,0.115
		c1.052-0.005,2.105-0.003,3.157-0.003c0.028,0,0.056,0,0.094,0c-0.019-0.044-0.032-0.078-0.048-0.111
		c-0.045-0.092-0.092-0.182-0.135-0.274c-0.139-0.298-0.273-0.597-0.415-0.893c-0.118-0.247-0.249-0.488-0.367-0.735
		c-0.186-0.388-0.368-0.779-0.551-1.168c-0.11-0.233-0.218-0.467-0.328-0.7c-0.074-0.157-0.152-0.311-0.226-0.469
		c-0.096-0.205-0.188-0.411-0.283-0.617c-0.124-0.269-0.245-0.54-0.374-0.807c-0.111-0.231-0.235-0.456-0.348-0.686
		c-0.14-0.287-0.273-0.577-0.411-0.865c-0.023-0.048-0.024-0.091,0.002-0.14c0.051-0.098,0.093-0.2,0.142-0.3
		c0.12-0.244,0.242-0.487,0.363-0.73c0.056-0.113,0.113-0.227,0.171-0.343c1.404,2.949,2.807,5.893,4.208,8.834
		c0.016,0.002,0.024,0.005,0.032,0.005c1.178,0,2.357,0,3.535,0.002c0.067,0,0.078-0.043,0.098-0.084
		c0.051-0.109,0.098-0.221,0.151-0.33c0.095-0.192,0.195-0.381,0.29-0.572c0.054-0.11,0.101-0.224,0.153-0.334
		c0.12-0.254,0.243-0.507,0.363-0.762c0.105-0.224,0.207-0.45,0.311-0.675c0.005,0.001,0.01,0.002,0.014,0.003
		c0,0.916,0,1.831,0,2.746c3.488,0,6.968,0,10.447,0c0-0.934,0-1.862,0-2.799c-1.229,0-2.454,0-3.678,0c0-3.193,0-6.378,0-9.569
		c1.229,0,2.452,0,3.677,0c0-0.936,0-1.865,0-2.794c-3.475,0-6.944,0-10.413,0c0,0.934,0,1.862,0,2.796c0.352,0,0.699,0,1.058,0
		c-1.41,2.969-2.816,5.929-4.227,8.9c-1.412-2.973-2.818-5.933-4.227-8.901c0.355,0,0.706,0,1.057,0c0-0.937,0-1.867,0-2.795
		c-1.757,0-3.508,0-5.258,0c0,0.934,0,1.862,0,2.797c0.23,0,0.457,0,0.695,0c-0.073,0.158-0.14,0.306-0.209,0.453
		c-0.134,0.285-0.268,0.569-0.403,0.853c-0.016,0.034-0.041,0.063-0.062,0.094c-0.018-0.03-0.039-0.058-0.054-0.089
		C8.491,15.325,8.29,14.9,8.09,14.475c-0.107-0.229-0.211-0.459-0.319-0.687c-0.076-0.161-0.157-0.319-0.233-0.48
		C7.407,13.029,7.28,12.749,7.15,12.47c-0.119-0.254-0.243-0.505-0.359-0.761c-0.027-0.059-0.055-0.075-0.117-0.075
		c-1.066,0.002-2.131,0.001-3.197,0.001C3.451,11.636,3.425,11.636,3.384,11.636z"/>
	<path style="fill:#897966;" d="M15.501,15.035c0-1.678,0-3.346,0-5.021c-0.657,0-1.313,0-1.978,0c0,0.19,0.001,0.38-0.001,0.57
		c0,0.056-0.005,0.112-0.012,0.167c-0.024,0.186-0.156,0.253-0.309,0.254c-0.719,0.005-1.439,0.008-2.158-0.002
		c-0.215-0.003-0.335-0.075-0.337-0.347c-0.005-1.023-0.002-2.045-0.001-3.068c0-0.119,0.023-0.238,0.14-0.296
		c0.071-0.035,0.159-0.052,0.239-0.052c0.835-0.004,1.67-0.002,2.504-0.002c3.216,0,6.431,0,9.647,0.002
		c0.075,0,0.157,0.015,0.224,0.048c0.124,0.06,0.146,0.184,0.146,0.308c0.001,0.95,0.001,1.9,0,2.851
		c0,0.101-0.001,0.204-0.013,0.304c-0.021,0.185-0.155,0.252-0.309,0.253c-0.725,0.004-1.449,0.004-2.174,0.001
		c-0.202-0.001-0.32-0.127-0.321-0.333c-0.002-0.217,0-0.434,0-0.658c-0.665,0-1.326,0-1.993,0c0,1.669,0,3.34,0,5.02
		c0.08,0,0.16,0,0.24,0c0.231,0.001,0.351,0.121,0.351,0.354c0,0.746,0,1.492,0,2.239c0,0.235-0.12,0.355-0.358,0.355
		c-1.248,0-2.496,0.001-3.745-0.002c-0.073,0-0.152-0.013-0.218-0.041c-0.117-0.05-0.155-0.163-0.155-0.279
		c-0.003-0.768-0.003-1.535,0-2.303c0.001-0.206,0.124-0.316,0.341-0.322C15.331,15.033,15.412,15.035,15.501,15.035z M15.798,9.724
		c0,1.869,0,3.733,0,5.602c-0.192,0-0.384,0-0.58,0c0,0.791,0,1.576,0,2.361c1.294,0,2.584,0,3.871,0c0-0.79,0-1.575,0-2.366
		c-0.199,0-0.391,0-0.584,0c0-1.87,0-3.734,0-5.598c0.858,0,1.711,0,2.572,0c0,0.332,0,0.661,0,0.989c0.751,0,1.493,0,2.232,0
		c0-1.064,0-2.123,0-3.18c-4.102,0-8.197,0-12.295,0c0,1.063,0,2.121,0,3.18c0.741,0,1.478,0,2.22,0c0-0.332,0-0.659,0-0.989
		C14.094,9.724,14.946,9.724,15.798,9.724z"/>
	<path style="fill:#897966; fill-opacity: 0.0;" d="M23.895,16.488c0,2.502,0,5.003,0,7.512c-1.191,0-2.382,0-3.581,0c0.006-0.02,0.011-0.044,0.021-0.065
		c0.118-0.252,0.236-0.504,0.354-0.757c0.168-0.359,0.335-0.718,0.504-1.077c0.109-0.232,0.221-0.464,0.333-0.694
		c0.124-0.253,0.253-0.504,0.374-0.758c0.175-0.368,0.344-0.739,0.516-1.109c0.062-0.133,0.128-0.263,0.191-0.396
		c0.16-0.34,0.319-0.681,0.479-1.021c0.157-0.333,0.313-0.666,0.473-0.998c0.104-0.215,0.215-0.427,0.323-0.641
		C23.887,16.486,23.891,16.487,23.895,16.488z M23.587,17.762c-0.946,1.995-1.884,3.97-2.823,5.951c0.948,0,1.884,0,2.823,0
		C23.587,21.733,23.587,19.757,23.587,17.762z"/>
</g>
</svg>
