<?xml version="1.0" encoding="utf-8"?>
<!-- Generator: Adobe Illustrator 17.0.0, SVG Export Plug-In . SVG Version: 6.00 Build 0)  -->
<!DOCTYPE svg PUBLIC "-//W3C//DTD SVG 1.1//EN" "http://www.w3.org/Graphics/SVG/1.1/DTD/svg11.dtd">
<svg version="1.1" id="Layer_1" xmlns="http://www.w3.org/2000/svg" xmlns:xlink="http://www.w3.org/1999/xlink" x="0px" y="0px"
	 width="100%" height="100%" viewBox="0 0 34 34" enable-background="new 0 0 34 34" xml:space="preserve">
<g>
 
	<path style="fill:#ecf0f1;"  d="M8.382,14.495c-0.005-0.968-0.012-1.936-0.015-2.903c-0.001-0.22,0.13-0.337,0.362-0.337c1.43,0,2.859,0,4.289,0
		c0.295,0,0.589-0.003,0.884,0.002c0.071,0.001,0.147,0.019,0.211,0.05c0.113,0.055,0.144,0.168,0.145,0.283
		c0.002,0.922,0.002,1.844,0.001,2.766c0,0.211-0.127,0.333-0.339,0.336c-0.18,0.002-0.36,0-0.562,0
		c1.267,2.685,2.528,5.357,3.8,8.051c1.27-2.692,2.532-5.366,3.8-8.051c-0.183,0-0.356,0-0.53,0c-0.256,0-0.373-0.118-0.373-0.376
		c0-0.9-0.001-1.801,0.001-2.701c0-0.117,0.019-0.234,0.131-0.299c0.059-0.034,0.132-0.043,0.2-0.061
		c0.023-0.006,0.049-0.001,0.073-0.001c3.437,0,6.875,0,10.312,0.002c0.077,0,0.16,0.014,0.228,0.047
		c0.127,0.06,0.152,0.185,0.152,0.312c0.001,0.704,0.001,1.408,0.001,2.112c0,0.207,0.003,0.415-0.001,0.622
		c-0.002,0.118-0.029,0.234-0.145,0.291c-0.066,0.032-0.145,0.05-0.219,0.05c-1.08,0.003-2.161,0.002-3.241,0.002
		c-0.033,0-0.065,0-0.104,0c0,3.044,0,6.084,0,9.135c0.031,0,0.063,0,0.094,0c1.083,0,2.166,0,3.249,0
		c0.12,0,0.241,0.018,0.306,0.133c0.035,0.061,0.058,0.138,0.058,0.208c0.004,0.917,0.003,1.833,0.002,2.75
		c0,0.226-0.127,0.345-0.362,0.345c-2.232,0-4.463,0-6.695,0c-1.233,0-2.466,0.001-3.699-0.002c-0.074,0-0.154-0.015-0.22-0.046
		c-0.124-0.058-0.152-0.179-0.153-0.303c-0.002-0.439-0.001-0.878-0.001-1.318c0-0.03,0-0.06,0-0.09
		c-0.004-0.002-0.008-0.003-0.012-0.005c-0.05,0.103-0.1,0.205-0.149,0.308c-0.085,0.179-0.168,0.358-0.252,0.538
		c-0.106,0.227-0.214,0.452-0.315,0.68c-0.071,0.161-0.191,0.238-0.364,0.237c-1.181,0-2.363,0-3.544-0.001
		c-0.163,0-0.278-0.063-0.347-0.228c-0.117-0.275-0.257-0.539-0.384-0.809c-0.236-0.501-0.469-1.004-0.705-1.506
		c-0.125-0.265-0.253-0.529-0.379-0.794c-0.139-0.292-0.276-0.585-0.414-0.877c-0.14-0.297-0.28-0.593-0.421-0.89
		c-0.153-0.324-0.307-0.647-0.46-0.971c-0.215-0.454-0.428-0.909-0.644-1.363c-0.16-0.336-0.321-0.671-0.482-1.007
		c-0.022-0.046-0.042-0.092-0.069-0.152c-0.106,0.222-0.197,0.434-0.309,0.635c-0.065,0.116-0.043,0.207,0.01,0.313
		c0.12,0.243,0.231,0.491,0.346,0.737c0.109,0.234,0.216,0.468,0.326,0.701c0.111,0.236,0.225,0.471,0.336,0.706
		c0.28,0.592,0.559,1.184,0.838,1.776c0.175,0.371,0.349,0.741,0.524,1.112c0.282,0.6,0.563,1.199,0.844,1.799
		c0.062,0.132,0.131,0.262,0.184,0.399c0.085,0.219-0.057,0.408-0.296,0.417c-0.022,0.001-0.044,0-0.065,0
		c-1.067,0-2.133-0.002-3.2,0.002c-0.206,0.001-0.337-0.078-0.417-0.269c-0.102-0.242-0.22-0.478-0.331-0.717
		c-0.138-0.296-0.275-0.591-0.413-0.886c-0.113-0.241-0.228-0.481-0.342-0.722c-0.142-0.299-0.283-0.599-0.431-0.911
		c-0.03,0.057-0.058,0.107-0.083,0.158c-0.219,0.464-0.438,0.928-0.655,1.393c-0.17,0.364-0.337,0.73-0.507,1.094
		c-0.098,0.211-0.201,0.42-0.298,0.632c-0.071,0.155-0.191,0.224-0.356,0.224c-1.102,0-2.204,0.001-3.307-0.001
		c-0.191,0-0.318-0.08-0.338-0.269c-0.006-0.058,0.008-0.125,0.032-0.179c0.093-0.208,0.194-0.413,0.29-0.62
		c0.143-0.305,0.283-0.611,0.426-0.916c0.114-0.243,0.232-0.485,0.348-0.728c0.18-0.381,0.359-0.762,0.539-1.143
		c0.167-0.353,0.337-0.705,0.503-1.059c0.198-0.42,0.393-0.842,0.591-1.261c0.176-0.373,0.356-0.745,0.533-1.117
		c0.076-0.159,0.151-0.319,0.223-0.48c0.011-0.025,0.01-0.064-0.001-0.088c-0.156-0.338-0.313-0.676-0.472-1.012
		c-0.161-0.341-0.326-0.681-0.487-1.022c-0.234-0.496-0.465-0.994-0.698-1.49c-0.151-0.322-0.303-0.644-0.456-0.965
		c-0.265-0.559-0.531-1.118-0.795-1.677c-0.132-0.28-0.26-0.562-0.392-0.842c-0.094-0.199-0.194-0.394-0.285-0.594
		c-0.029-0.063-0.056-0.135-0.055-0.202c0.005-0.219,0.1-0.334,0.338-0.341c0.264-0.007,0.529-0.002,0.794-0.002
		c0.824,0,1.648,0,2.472,0c0.177,0,0.299,0.067,0.376,0.24c0.151,0.343,0.32,0.677,0.48,1.016c0.126,0.268,0.247,0.538,0.373,0.805
		c0.132,0.28,0.266,0.559,0.401,0.838c0.055,0.114,0.112,0.226,0.168,0.339c0,0.011-0.003,0.023,0.002,0.032
		c0.096,0.199,0.193,0.399,0.294,0.607c0.073-0.15,0.141-0.292,0.213-0.441C8.688,14.693,8.486,14.714,8.382,14.495z M13.912,26.969
		c-0.017-0.042-0.03-0.079-0.047-0.114c-0.045-0.093-0.094-0.185-0.138-0.278c-0.103-0.22-0.202-0.441-0.305-0.661
		c-0.134-0.285-0.27-0.568-0.405-0.853c-0.203-0.429-0.406-0.859-0.609-1.289c-0.122-0.259-0.243-0.518-0.364-0.777
		c-0.078-0.167-0.157-0.333-0.235-0.499c-0.23-0.487-0.461-0.974-0.691-1.462c-0.108-0.23-0.212-0.462-0.32-0.691
		c-0.128-0.272-0.258-0.543-0.389-0.813c-0.025-0.052-0.028-0.096-0.001-0.149c0.064-0.126,0.122-0.256,0.183-0.384
		c0.161-0.336,0.322-0.673,0.485-1.014c0.014,0.022,0.026,0.039,0.035,0.058c0.121,0.253,0.242,0.505,0.361,0.758
		c0.195,0.415,0.389,0.831,0.583,1.247c0.095,0.203,0.191,0.405,0.286,0.607c0.13,0.276,0.26,0.552,0.391,0.827
		c0.09,0.19,0.185,0.377,0.274,0.568c0.116,0.248,0.226,0.499,0.342,0.747c0.14,0.297,0.285,0.591,0.426,0.888
		c0.207,0.434,0.412,0.869,0.618,1.303c0.079,0.166,0.16,0.332,0.238,0.498c0.125,0.266,0.246,0.534,0.371,0.8
		c0.108,0.228,0.22,0.455,0.331,0.683c0.007,0.001,0.015,0.002,0.023,0.002c1.189,0,2.379,0,3.568,0.002
		c0.06,0,0.077-0.03,0.098-0.075c0.195-0.421,0.391-0.841,0.589-1.261c0.123-0.261,0.25-0.52,0.373-0.781
		c0.107-0.228,0.211-0.457,0.316-0.685c0.005,0.001,0.01,0.002,0.015,0.003c0,0.931,0,1.862,0,2.79c3.518,0,7.027,0,10.534,0
		c0-0.95,0-1.893,0-2.845c-1.239,0-2.473,0-3.707,0c0-3.244,0-6.478,0-9.722c1.238,0,2.472,0,3.706,0c0-0.954,0-1.899,0-2.841
		c-3.504,0-7.003,0-10.499,0c0,0.95,0,1.892,0,2.842c0.357,0,0.71,0,1.068,0c-0.072,0.156-0.14,0.306-0.211,0.455
		c-0.138,0.289-0.28,0.576-0.416,0.866c-0.125,0.265-0.243,0.534-0.367,0.8c-0.139,0.297-0.281,0.592-0.421,0.888
		c-0.188,0.398-0.375,0.797-0.563,1.195c-0.133,0.283-0.268,0.565-0.401,0.847c-0.197,0.418-0.393,0.836-0.592,1.253
		c-0.129,0.272-0.262,0.542-0.391,0.814c-0.205,0.434-0.407,0.87-0.61,1.305c-0.094,0.202-0.189,0.404-0.285,0.607
		c-0.007-0.007-0.015-0.011-0.018-0.018c-0.121-0.253-0.243-0.505-0.363-0.759c-0.103-0.219-0.203-0.44-0.306-0.659
		c-0.131-0.28-0.264-0.559-0.396-0.839c-0.19-0.403-0.38-0.806-0.571-1.209c-0.128-0.27-0.258-0.539-0.386-0.809
		c-0.197-0.418-0.39-0.837-0.587-1.254c-0.126-0.268-0.258-0.533-0.385-0.801c-0.102-0.214-0.199-0.431-0.301-0.646
		c-0.089-0.188-0.181-0.374-0.27-0.562c-0.092-0.195-0.18-0.393-0.271-0.588c-0.114-0.243-0.23-0.486-0.345-0.729
		c-0.023-0.049-0.046-0.098-0.075-0.159c0.368,0,0.719,0,1.069,0c0-0.953,0-1.897,0-2.842c-1.767,0-3.529,0-5.294,0
		c0,0.949,0,1.894,0,2.847c0.229,0,0.454,0,0.691,0c-0.228,0.482-0.451,0.953-0.68,1.439c-0.019-0.046-0.03-0.075-0.043-0.103
		c-0.202-0.427-0.406-0.854-0.607-1.281c-0.113-0.239-0.221-0.481-0.334-0.72c-0.077-0.163-0.16-0.324-0.236-0.488
		c-0.127-0.271-0.249-0.544-0.376-0.815c-0.126-0.27-0.26-0.537-0.382-0.809c-0.028-0.063-0.06-0.074-0.12-0.074
		c-1.069,0.001-2.139,0.001-3.208,0.001c-0.03,0-0.059,0-0.102,0c0.013,0.045,0.018,0.082,0.033,0.114
		c0.059,0.122,0.124,0.242,0.181,0.364c0.087,0.186,0.168,0.375,0.255,0.56c0.144,0.307,0.292,0.612,0.437,0.918
		c0.193,0.407,0.385,0.815,0.576,1.223c0.1,0.213,0.196,0.428,0.296,0.64c0.14,0.297,0.282,0.593,0.423,0.89
		c0.188,0.398,0.375,0.797,0.563,1.195c0.139,0.294,0.279,0.588,0.419,0.882c0.172,0.362,0.344,0.724,0.515,1.087
		c0.007,0.015,0.002,0.041-0.005,0.058c-0.105,0.231-0.209,0.462-0.318,0.691c-0.13,0.272-0.267,0.54-0.397,0.812
		c-0.096,0.2-0.184,0.403-0.278,0.603c-0.121,0.258-0.244,0.516-0.367,0.773c-0.107,0.224-0.216,0.447-0.322,0.672
		c-0.128,0.272-0.252,0.547-0.379,0.819c-0.15,0.32-0.301,0.639-0.452,0.958c-0.138,0.292-0.276,0.583-0.415,0.875
		c-0.172,0.362-0.344,0.723-0.515,1.085c-0.03,0.064-0.057,0.13-0.088,0.2c0.039,0,0.069,0,0.099,0c1.034,0,2.068-0.003,3.102,0.004
		c0.154,0.001,0.244-0.023,0.305-0.186c0.095-0.253,0.23-0.49,0.345-0.735c0.153-0.324,0.303-0.65,0.453-0.975
		c0.087-0.187,0.172-0.374,0.259-0.56c0.114-0.244,0.228-0.487,0.342-0.73c0.066-0.14,0.132-0.279,0.198-0.419
		c0.047-0.099,0.096-0.197,0.148-0.304c0.132,0.274,0.259,0.534,0.382,0.796c0.127,0.271,0.249,0.545,0.376,0.816
		c0.091,0.193,0.189,0.384,0.28,0.577c0.178,0.38,0.354,0.761,0.531,1.142c0.072,0.154,0.144,0.308,0.214,0.463
		c0.035,0.078,0.076,0.117,0.176,0.116c0.985-0.006,1.97-0.003,2.955-0.003C13.695,26.969,13.798,26.969,13.912,26.969z"/>
	<path style="fill:#ecf0f1;" d="M15.483,15.003c0-1.705,0-3.401,0-5.102c-0.663,0-1.324,0-1.994,0c0,0.21,0.001,0.419-0.001,0.628
		c0,0.04-0.006,0.081-0.012,0.121c-0.026,0.188-0.159,0.257-0.315,0.258c-0.726,0.005-1.451,0.004-2.177,0.001
		c-0.211-0.001-0.327-0.132-0.327-0.355c0-1.039,0-2.079,0-3.118c0-0.032,0.007-0.064,0.012-0.097
		c0.026-0.188,0.159-0.245,0.315-0.259c0.016-0.002,0.033,0,0.049,0c4.086,0,8.173,0,12.259,0.002c0.076,0,0.16,0.015,0.228,0.048
		c0.126,0.061,0.149,0.186,0.149,0.313c0.001,0.996,0.001,1.991,0,2.987c0,0.073-0.003,0.147-0.012,0.219
		c-0.024,0.188-0.158,0.257-0.314,0.258c-0.731,0.005-1.462,0.004-2.193,0.001c-0.206-0.001-0.325-0.129-0.327-0.339
		c-0.002-0.221,0-0.442,0-0.669c-0.67,0-1.336,0-2.008,0c0,1.696,0,3.394,0,5.101c0.082,0,0.163,0,0.243,0
		c0.234,0.001,0.356,0.123,0.357,0.359c0,0.758,0,1.517,0,2.275c0,0.239-0.122,0.36-0.364,0.36c-1.263,0-2.526,0-3.789,0
		c-0.245,0-0.364-0.121-0.364-0.368c0-0.753,0-1.506,0-2.259c0-0.247,0.12-0.368,0.364-0.368
		C15.332,15.003,15.403,15.003,15.483,15.003z M23.37,10.612c0-1.082,0-2.158,0-3.232c-4.143,0-8.279,0-12.415,0
		c0,1.08,0,2.154,0,3.23c0.747,0,1.49,0,2.242,0c0-0.339,0-0.672,0-1.006c0.87,0,1.731,0,2.588,0c0,1.898,0,3.792,0,5.695
		c-0.196,0-0.393,0-0.59,0c0,0.805,0,1.6,0,2.399c1.309,0,2.614,0,3.92,0c0-0.802,0-1.6,0-2.406c-0.203,0-0.4,0-0.595,0
		c0-1.901,0-3.793,0-5.686c0.868,0,1.731,0,2.6,0c0,0.338,0,0.67,0,1.005C21.872,10.612,22.618,10.612,23.37,10.612z"/>
	<path style="fill:#ecf0f1; fill-opacity: 0.2;" d="M13.912,26.969c-0.114,0-0.218,0-0.321,0c-0.985,0-1.97-0.002-2.955,0.003
		c-0.1,0.001-0.141-0.038-0.176-0.116c-0.07-0.155-0.142-0.309-0.214-0.463c-0.177-0.381-0.352-0.762-0.531-1.142
		c-0.091-0.193-0.189-0.383-0.28-0.577c-0.127-0.271-0.249-0.545-0.376-0.816c-0.123-0.262-0.251-0.522-0.382-0.796
		c-0.052,0.107-0.101,0.205-0.148,0.304c-0.067,0.139-0.133,0.279-0.198,0.419c-0.114,0.243-0.229,0.486-0.342,0.73
		c-0.087,0.187-0.172,0.374-0.259,0.56c-0.151,0.325-0.301,0.65-0.453,0.975c-0.115,0.245-0.251,0.483-0.345,0.735
		c-0.061,0.163-0.151,0.187-0.305,0.186c-1.034-0.007-2.068-0.004-3.102-0.004c-0.03,0-0.06,0-0.099,0
		c0.031-0.07,0.058-0.136,0.088-0.2c0.171-0.362,0.343-0.723,0.515-1.085c0.138-0.291,0.277-0.583,0.415-0.875
		c0.151-0.319,0.303-0.638,0.452-0.958c0.128-0.273,0.252-0.547,0.379-0.819c0.106-0.225,0.215-0.448,0.322-0.672
		c0.123-0.258,0.246-0.515,0.367-0.773c0.094-0.2,0.182-0.403,0.278-0.603c0.13-0.272,0.267-0.54,0.397-0.812
		c0.109-0.229,0.213-0.46,0.318-0.691c0.008-0.017,0.013-0.043,0.005-0.058c-0.17-0.363-0.343-0.725-0.515-1.087
		c-0.14-0.294-0.28-0.587-0.419-0.882c-0.188-0.398-0.375-0.797-0.563-1.195c-0.14-0.297-0.283-0.593-0.423-0.89
		c-0.1-0.213-0.196-0.427-0.296-0.64c-0.191-0.408-0.383-0.816-0.576-1.223c-0.145-0.306-0.293-0.611-0.437-0.918
		c-0.087-0.186-0.168-0.375-0.255-0.56c-0.058-0.123-0.122-0.242-0.181-0.364c-0.015-0.032-0.02-0.069-0.033-0.114
		c0.043,0,0.073,0,0.102,0c1.069,0,2.139,0,3.208-0.001c0.06,0,0.092,0.011,0.12,0.074c0.122,0.272,0.256,0.539,0.382,0.809
		c0.127,0.271,0.249,0.544,0.376,0.815c0.076,0.164,0.16,0.324,0.236,0.488c0.113,0.239,0.221,0.481,0.334,0.72
		c0.202,0.427,0.405,0.854,0.607,1.281c0.013,0.028,0.024,0.057,0.043,0.103c0.23-0.486,0.452-0.957,0.68-1.439
		c-0.238,0-0.462,0-0.691,0c0-0.953,0-1.898,0-2.847c1.765,0,3.526,0,5.294,0c0,0.945,0,1.89,0,2.842c-0.35,0-0.701,0-1.069,0
		c0.029,0.062,0.052,0.11,0.075,0.159c0.115,0.243,0.231,0.485,0.345,0.729c0.092,0.196,0.179,0.393,0.271,0.588
		c0.088,0.188,0.181,0.374,0.27,0.562c0.101,0.215,0.199,0.431,0.301,0.646c0.127,0.267,0.258,0.533,0.385,0.801
		c0.197,0.417,0.391,0.836,0.587,1.254c0.127,0.27,0.258,0.539,0.386,0.809c0.191,0.403,0.381,0.806,0.571,1.209
		c0.132,0.28,0.265,0.559,0.396,0.839c0.103,0.219,0.202,0.44,0.306,0.659c0.12,0.254,0.242,0.506,0.363,0.759
		c0.003,0.007,0.011,0.011,0.018,0.018c0.095-0.204,0.19-0.405,0.285-0.607c0.203-0.435,0.406-0.871,0.61-1.305
		c0.128-0.272,0.262-0.542,0.391-0.814c0.198-0.417,0.394-0.835,0.592-1.253c0.134-0.282,0.268-0.564,0.401-0.847
		c0.188-0.398,0.375-0.797,0.563-1.195c0.14-0.296,0.282-0.591,0.421-0.888c0.124-0.266,0.242-0.535,0.367-0.8
		c0.136-0.29,0.278-0.577,0.416-0.866c0.071-0.148,0.138-0.298,0.211-0.455c-0.357,0-0.71,0-1.068,0c0-0.95,0-1.893,0-2.842
		c3.497,0,6.995,0,10.499,0c0,0.943,0,1.887,0,2.841c-1.234,0-2.468,0-3.706,0c0,3.244,0,6.478,0,9.722c1.235,0,2.469,0,3.707,0
		c0,0.952,0,1.895,0,2.845c-3.507,0-7.017,0-10.534,0c0-0.928,0-1.859,0-2.79c-0.005-0.001-0.01-0.002-0.015-0.003
		c-0.105,0.228-0.209,0.457-0.316,0.685c-0.123,0.261-0.25,0.52-0.373,0.781c-0.198,0.42-0.394,0.84-0.589,1.261
		c-0.021,0.044-0.038,0.075-0.098,0.075c-1.189-0.002-2.379-0.002-3.568-0.002c-0.008,0-0.016-0.001-0.023-0.002
		c-0.111-0.228-0.223-0.455-0.331-0.683c-0.126-0.266-0.247-0.534-0.371-0.8c-0.078-0.167-0.159-0.332-0.238-0.498
		c-0.206-0.434-0.411-0.869-0.618-1.303c-0.141-0.296-0.287-0.591-0.426-0.888c-0.117-0.248-0.227-0.499-0.342-0.747
		c-0.089-0.19-0.183-0.378-0.274-0.568c-0.131-0.275-0.261-0.551-0.391-0.827c-0.096-0.202-0.192-0.404-0.286-0.607
		c-0.195-0.416-0.388-0.832-0.583-1.247c-0.119-0.253-0.241-0.506-0.361-0.758c-0.009-0.019-0.022-0.036-0.035-0.058
		c-0.163,0.342-0.325,0.678-0.485,1.014c-0.061,0.128-0.119,0.258-0.183,0.384c-0.027,0.053-0.024,0.097,0.001,0.149
		c0.131,0.27,0.261,0.541,0.389,0.813c0.108,0.23,0.212,0.462,0.32,0.691c0.229,0.488,0.46,0.975,0.691,1.462
		c0.079,0.166,0.157,0.333,0.235,0.499c0.121,0.259,0.242,0.519,0.364,0.777c0.203,0.43,0.406,0.859,0.609,1.289
		c0.135,0.284,0.271,0.568,0.405,0.853c0.103,0.22,0.203,0.441,0.305,0.661c0.044,0.094,0.093,0.185,0.138,0.278
		C13.882,26.89,13.895,26.927,13.912,26.969z M23.942,24.118c0-2.552,0-5.096,0-7.654c-0.014,0.025-0.021,0.036-0.026,0.048
		c-0.142,0.299-0.283,0.599-0.425,0.898c-0.117,0.246-0.236,0.491-0.352,0.737c-0.12,0.253-0.236,0.508-0.356,0.762
		c-0.104,0.222-0.212,0.442-0.317,0.664c-0.1,0.213-0.196,0.427-0.297,0.64c-0.123,0.261-0.25,0.519-0.372,0.78
		c-0.126,0.269-0.245,0.54-0.372,0.808c-0.233,0.494-0.471,0.986-0.706,1.479c-0.12,0.253-0.238,0.507-0.357,0.761
		c-0.011,0.023-0.017,0.049-0.026,0.076C21.542,24.118,22.739,24.118,23.942,24.118z"/>
	<path style="fill:#ecf0f1; fill-opacity: 0.2;" d="M23.37,10.612c-0.752,0-1.499,0-2.251,0c0-0.335,0-0.667,0-1.005c-0.869,0-1.732,0-2.6,0
		c0,1.892,0,3.784,0,5.686c0.195,0,0.392,0,0.595,0c0,0.807,0,1.604,0,2.406c-1.306,0-2.611,0-3.92,0c0-0.799,0-1.594,0-2.399
		c0.197,0,0.395,0,0.59,0c0-1.903,0-3.797,0-5.695c-0.856,0-1.717,0-2.588,0c0,0.333,0,0.667,0,1.006c-0.752,0-1.495,0-2.242,0
		c0-1.076,0-2.15,0-3.23c4.136,0,8.272,0,12.415,0C23.37,8.454,23.37,9.53,23.37,10.612z"/>
	<path style="fill:#ecf0f1;" d="M23.942,24.118c-1.203,0-2.4,0-3.604,0c0.009-0.027,0.015-0.053,0.026-0.076c0.118-0.254,0.236-0.508,0.357-0.761
		c0.235-0.493,0.472-0.985,0.706-1.479c0.127-0.268,0.246-0.54,0.372-0.808c0.122-0.261,0.249-0.52,0.372-0.78
		c0.1-0.213,0.197-0.427,0.297-0.64c0.104-0.222,0.212-0.442,0.317-0.664c0.119-0.254,0.236-0.509,0.356-0.762
		c0.116-0.246,0.235-0.491,0.352-0.737c0.142-0.299,0.284-0.598,0.425-0.898c0.006-0.012,0.013-0.023,0.026-0.048
		C23.942,19.022,23.942,21.566,23.942,24.118z M20.797,23.82c0.958,0,1.905,0,2.85,0c0-2.013,0-4.02,0-6.051
		C22.691,19.8,21.745,21.808,20.797,23.82z"/>

</g>
</svg>
