<?xml version="1.0" encoding="utf-8"?>
<!-- Generator: Adobe Illustrator 17.0.0, SVG Export Plug-In . SVG Version: 6.00 Build 0)  -->
<!DOCTYPE svg PUBLIC "-//W3C//DTD SVG 1.1//EN" "http://www.w3.org/Graphics/SVG/1.1/DTD/svg11.dtd">
<svg version="1.1" id="Layer_1" xmlns="http://www.w3.org/2000/svg" xmlns:xlink="http://www.w3.org/1999/xlink" x="0px" y="0px"
	 width="34px" height="34px" enable-background="new 0 0 34 34" xml:space="preserve" 
	 preserveAspectRatio="xMinYMin meet" viewBox="0 0 {width} {height}">
<g>
	<path  d="M0.35,10.608c0-0.011,0-0.022,0-0.033c0.035,0.001,0.071,0.002,0.106,0.002c1.232,0,2.463,0.001,3.695-0.001
		c0.06,0,0.09,0.017,0.116,0.073c0.682,1.454,1.365,2.907,2.049,4.361c0.078,0.165,0.156,0.33,0.239,0.506
		c0.267-0.569,0.528-1.124,0.795-1.692c-0.273,0-0.533,0-0.796,0c0-1.086,0-2.163,0-3.242c2.016,0,4.025,0,6.039,0
		c0,1.081,0,2.158,0,3.246c-0.406,0-0.807,0-1.22,0c1.64,3.475,3.273,6.935,4.915,10.413c1.642-3.48,3.276-6.943,4.917-10.419
		c-0.423,0-0.828,0-1.234,0c0-1.085,0-2.162,0-3.238c4.019,0,8.03,0,12.041,0c0,1.082,0,2.157,0,3.241c-1.428,0-2.851,0-4.276,0
		c0,3.735,0,7.46,0,11.196c1.43,0,2.852,0,4.274,0c0,1.086,0,2.16,0,3.236c-4.031,0-8.056,0-12.089,0c0-0.038,0-0.07,0-0.102
		c0-0.834,0-1.667,0-2.501c0-0.212,0.002-0.425,0.002-0.637c1.389,0,2.778,0,4.171,0c0-2.96,0-5.91,0-8.885
		c-0.023,0.044-0.035,0.067-0.046,0.09c-0.297,0.629-0.594,1.258-0.89,1.887c-0.952,2.021-1.904,4.041-2.856,6.062
		c-0.131,0.278-0.258,0.557-0.388,0.835c-0.009,0.014-0.019,0.026-0.026,0.041c-0.491,1.042-0.983,2.084-1.471,3.128
		c-0.032,0.069-0.07,0.091-0.145,0.091c-1.324-0.002-2.648-0.002-3.972-0.001c-0.064,0-0.1-0.015-0.129-0.078
		c-0.374-0.797-0.752-1.592-1.128-2.388c-1.169-2.471-2.337-4.942-3.506-7.413c-0.072-0.153-0.146-0.305-0.224-0.469
		c-0.016,0.026-0.025,0.039-0.032,0.053c-0.254,0.532-0.507,1.065-0.763,1.596c-0.024,0.05-0.023,0.087,0,0.136
		c1.268,2.691,2.535,5.383,3.803,8.075c0.075,0.159,0.149,0.318,0.229,0.487c-0.035,0-0.059,0-0.083,0
		c-1.237,0-2.474-0.001-3.711,0.002c-0.063,0-0.089-0.024-0.113-0.076c-0.624-1.331-1.249-2.662-1.874-3.992
		c-0.07-0.148-0.141-0.296-0.216-0.454c-0.018,0.036-0.03,0.06-0.042,0.084c-0.678,1.447-1.356,2.893-2.031,4.341
		c-0.033,0.07-0.067,0.098-0.15,0.098c-1.231-0.003-2.463-0.002-3.694-0.002c-0.029,0-0.059,0-0.098,0
		c0.014-0.033,0.024-0.057,0.035-0.081c0.493-1.044,0.986-2.089,1.479-3.133c0.84-1.779,1.68-3.558,2.522-5.336
		c0.027-0.057,0.028-0.101,0.001-0.159c-0.159-0.331-0.313-0.663-0.47-0.995c-1.138-2.414-2.275-4.827-3.413-7.241
		C0.58,11.08,0.464,10.845,0.35,10.608z"/>
	<path  display="none" fill="#FFFFFF" d="M19.923,25.016c-0.001,0.212-0.002,0.425-0.002,0.637c0,0.834,0,1.667,0,2.501
		c0,0.032,0,0.064,0,0.102c4.032,0,8.058,0,12.089,0c0-1.076,0-2.151,0-3.236c-1.421,0-2.844,0-4.274,0c0-3.736,0-7.461,0-11.196
		c1.425,0,2.848,0,4.276,0c0-1.085,0-2.16,0-3.241c-4.011,0-8.022,0-12.041,0c0,1.076,0,2.153,0,3.238c0.406,0,0.811,0,1.234,0
		c-1.641,3.477-3.275,6.939-4.917,10.419c-1.641-3.478-3.275-6.938-4.915-10.413c0.413,0,0.814,0,1.22,0c0-1.088,0-2.165,0-3.246
		c-2.014,0-4.024,0-6.039,0c0,1.079,0,2.156,0,3.242c0.262,0,0.522,0,0.796,0c-0.267,0.568-0.528,1.123-0.795,1.692
		c-0.083-0.176-0.161-0.341-0.239-0.506c-0.683-1.453-1.367-2.907-2.049-4.361c-0.026-0.056-0.056-0.073-0.116-0.073
		c-1.232,0.002-2.463,0.001-3.695,0.001c-0.035,0-0.071-0.001-0.106-0.002c0-1.602,0-3.204,0-4.806c2.943,0,5.885,0,8.828,0
		C9.176,5.788,9.174,5.807,9.174,5.826c0,1.191,0,2.381,0,3.572c0,0.021,0.003,0.042,0.005,0.065c0.851,0,1.696,0,2.549,0
		c0-0.385,0-0.765,0-1.15c1.003,0,1.998,0,2.999,0c0,2.189,0,4.372,0,6.565c-0.229,0-0.453,0-0.674,0c0,0.916,0,1.821,0,2.726
		c1.496,0,2.985,0,4.475,0c0-0.911,0-1.817,0-2.732c-0.232,0-0.459,0-0.685,0c0-2.191,0-4.373,0-6.559
		c0.025-0.002,0.046-0.006,0.067-0.006c0.954,0,1.907,0,2.861-0.002c0.063,0,0.077,0.021,0.077,0.08
		c-0.003,0.327-0.001,0.654-0.001,0.981c0,0.032,0,0.063,0,0.094c0.863,0,1.713,0,2.569,0c0-0.143,0-0.279,0-0.415
		c0.001-1.092,0.001-2.185,0.002-3.277c2.872,0,5.744,0,8.615,0c0,7.504,0,15.008,0,22.511c-10.561,0-21.122,0-31.683,0
		c0-5.891,0-11.782,0-17.672c0.114,0.237,0.231,0.472,0.343,0.71c1.138,2.413,2.276,4.827,3.413,7.241
		c0.156,0.332,0.311,0.665,0.47,0.995c0.028,0.058,0.026,0.102-0.001,0.159c-0.842,1.778-1.682,3.557-2.522,5.336
		c-0.493,1.044-0.986,2.089-1.479,3.133c-0.011,0.024-0.021,0.049-0.035,0.081c0.039,0,0.068,0,0.098,0
		c1.231,0,2.463-0.001,3.694,0.002c0.082,0,0.117-0.028,0.15-0.098c0.676-1.448,1.354-2.894,2.031-4.341
		c0.011-0.024,0.024-0.048,0.042-0.084c0.075,0.158,0.146,0.306,0.216,0.454c0.625,1.331,1.25,2.661,1.874,3.992
		c0.024,0.052,0.05,0.076,0.113,0.076c1.237-0.002,2.474-0.002,3.711-0.002c0.024,0,0.048,0,0.083,0
		c-0.079-0.169-0.154-0.328-0.229-0.487c-1.267-2.692-2.534-5.384-3.803-8.075c-0.023-0.048-0.024-0.086,0-0.136
		c0.256-0.531,0.509-1.064,0.763-1.596c0.007-0.014,0.016-0.027,0.032-0.053c0.078,0.164,0.152,0.316,0.224,0.469
		c1.169,2.471,2.337,4.942,3.506,7.413c0.376,0.796,0.754,1.591,1.128,2.388c0.029,0.063,0.065,0.078,0.129,0.078
		c1.324-0.002,2.648-0.002,3.972,0.001c0.075,0,0.112-0.021,0.145-0.091c0.488-1.044,0.98-2.085,1.471-3.128
		c0.007-0.014,0.017-0.027,0.026-0.041C19.917,25.009,19.92,25.013,19.923,25.016z"/>
	<path  d="M23.417,5.769c-0.001,1.092-0.001,2.185-0.002,3.277c0,0.136,0,0.272,0,0.415c-0.856,0-1.707,0-2.569,0
		c0-0.031,0-0.063,0-0.094c0-0.327-0.001-0.654,0.001-0.981c0-0.059-0.014-0.08-0.077-0.08c-0.954,0.002-1.907,0.001-2.861,0.002
		c-0.021,0-0.042,0.003-0.067,0.006c0,2.186,0,4.367,0,6.559c0.226,0,0.453,0,0.685,0c0,0.915,0,1.821,0,2.732
		c-1.491,0-2.979,0-4.475,0c0-0.905,0-1.81,0-2.726c0.221,0,0.445,0,0.674,0c0-2.193,0-4.377,0-6.565c-1,0-1.996,0-2.999,0
		c0,0.385,0,0.765,0,1.15c-0.853,0-1.698,0-2.549,0C9.177,9.439,9.174,9.418,9.174,9.397c0-1.191,0-2.381,0-3.572
		c0-0.019,0.003-0.038,0.004-0.057C13.924,5.769,18.671,5.769,23.417,5.769z"/>
	<path  display="none" fill="#FFFFFF" d="M19.914,25.006c0.129-0.279,0.257-0.558,0.388-0.835c0.952-2.021,1.904-4.041,2.856-6.062
		c0.297-0.629,0.594-1.258,0.89-1.887c0.011-0.024,0.024-0.046,0.046-0.09c0,2.974,0,5.925,0,8.885c-1.394,0-2.782,0-4.171,0
		C19.92,25.013,19.917,25.009,19.914,25.006z"/>
</g>
</svg>
